/* XPM */
static char *d265ae44793246bfd8ee98f4c827eb86[] = {
/* columns rows colors chars-per-pixel */
"64 64 256 2 ",
"   c #553F15",
".  c #78540D",
"X  c #785818",
"o  c #694B0E",
"O  c #7E621C",
"+  c #584A29",
"@  c #564A2F",
"#  c #68562B",
"$  c #7A5D25",
"%  c #685937",
"&  c #6D5935",
"*  c #7A6325",
"=  c #766437",
"-  c #6E602A",
";  c #4E401F",
":  c #6A5D46",
">  c #6E6246",
",  c #766847",
"<  c #7C7256",
"1  c #786F4D",
"2  c #815E14",
"3  c #815E19",
"4  c #865F0D",
"5  c #86620E",
"6  c #84631B",
"7  c #8C6B1C",
"8  c #8A6717",
"9  c #926D1D",
"0  c #956C16",
"q  c #9A741D",
"w  c #9A751A",
"e  c #9B700F",
"r  c #A67C1A",
"t  c #836423",
"y  c #866825",
"u  c #8C6C24",
"i  c #8A6D2A",
"p  c #84682A",
"a  c #916C22",
"s  c #8E712B",
"d  c #957325",
"f  c #9B7422",
"g  c #9C7A24",
"h  c #92732C",
"j  c #9C7C2C",
"k  c #967A29",
"l  c #896B34",
"z  c #8D7333",
"x  c #897739",
"c  c #927533",
"v  c #967934",
"b  c #9C7C33",
"n  c #947B3C",
"m  c #9A7E39",
"M  c #977535",
"N  c #A27C24",
"B  c #A47D2A",
"V  c #A87C22",
"C  c #877848",
"Z  c #957E42",
"A  c #867A56",
"S  c #A07F40",
"D  c #9D841C",
"F  c #A5821C",
"G  c #A9831D",
"H  c #B58A1C",
"J  c #B9971A",
"K  c #9B8229",
"L  c #9B8528",
"P  c #9D8234",
"I  c #9C823C",
"U  c #978838",
"Y  c #9C923F",
"T  c #A48323",
"R  c #AB8424",
"E  c #AC8A24",
"W  c #A3842A",
"Q  c #AC852A",
"!  c #A58B2B",
"~  c #AA8C2C",
"^  c #A58A25",
"/  c #B28C26",
"(  c #B38B2A",
")  c #B58929",
"_  c #AC922C",
"`  c #AB9627",
"'  c #BC9425",
"]  c #B2942D",
"[  c #BD932B",
"{  c #BB9B2B",
"}  c #B89826",
"|  c #A38333",
" . c #A48B33",
".. c #AC8B32",
"X. c #A58C3D",
"o. c #AB8A3C",
"O. c #A5853A",
"+. c #B48E37",
"@. c #AB953D",
"#. c #AD993B",
"$. c #AC9534",
"%. c #B29433",
"&. c #BC9B33",
"*. c #B29C3C",
"=. c #BA9D3B",
"-. c #B79636",
";. c #BBA329",
":. c #B6A23C",
">. c #BBA33C",
",. c #BEAB3B",
"<. c #BBA435",
"1. c #BFB23F",
"2. c #C2961C",
"3. c #CAA61C",
"4. c #C29B2D",
"5. c #C69B28",
"6. c #C59C36",
"7. c #CCAB2C",
"8. c #C7A628",
"9. c #D6AB2C",
"0. c #CDB32C",
"q. c #D6B52A",
"w. c #C4A333",
"e. c #CBA332",
"r. c #CCAD32",
"t. c #C2A53D",
"y. c #CBAD3C",
"u. c #C6A938",
"i. c #D5AC35",
"p. c #CDB43B",
"a. c #C9B736",
"s. c #DCBC34",
"d. c #D4B33B",
"f. c #DCBB3D",
"g. c #D6B738",
"h. c #E2BB29",
"j. c #E2BA39",
"k. c #DCC23B",
"l. c #DBC638",
"z. c #D6CA36",
"x. c #E4C435",
"c. c #EBCB35",
"v. c #E5C43C",
"b. c #EACC3B",
"n. c #E6C838",
"m. c #F1CE35",
"M. c #EAD33A",
"N. c #F5D334",
"B. c #F4DC3D",
"V. c #F7D838",
"C. c #EFCB2E",
"Z. c #FEEC3C",
"A. c #FCE437",
"S. c #FFF73D",
"D. c #FFE52F",
"F. c #8D8244",
"G. c #9D8342",
"H. c #9D864A",
"J. c #98864A",
"K. c #888257",
"L. c #968856",
"P. c #9E9555",
"I. c #A28543",
"U. c #A58A44",
"Y. c #A48C4B",
"T. c #A98E4A",
"R. c #A88C46",
"E. c #AA9343",
"W. c #AC934C",
"Q. c #AA9847",
"!. c #B39C43",
"~. c #B39C4C",
"^. c #B89744",
"/. c #A99956",
"(. c #B39D52",
"). c #B99C51",
"_. c #A98E4D",
"`. c #B5A143",
"'. c #BBA542",
"]. c #BDAA43",
"[. c #B5A34B",
"{. c #BAA54A",
"}. c #BDAA4C",
"|. c #B6A948",
" X c #B6A252",
".X c #BAA553",
"XX c #BDAA53",
"oX c #BAA95C",
"OX c #BEB14E",
"+X c #9D9465",
"@X c #958F69",
"#X c #A79A67",
"$X c #B09B66",
"%X c #AEA369",
"&X c #B8A767",
"*X c #BBAA72",
"=X c #B6AB74",
"-X c #C29E49",
";X c #C3AB43",
":X c #C3AD4B",
">X c #C6A848",
",X c #D2AD44",
"<X c #C4B24C",
"1X c #CBBC4C",
"2X c #CAB547",
"3X c #D3B443",
"4X c #DABC43",
"5X c #D3BC4A",
"6X c #D5B946",
"7X c #C1AD54",
"8X c #C2AE5A",
"9X c #C9AB57",
"0X c #C5B355",
"qX c #CAB554",
"wX c #CABC54",
"eX c #C5B45B",
"rX c #C6B85A",
"tX c #CCBC5B",
"yX c #C7B856",
"uX c #D3BA58",
"iX c #E4BF45",
"pX c #C8B764",
"aX c #D6BC67",
"sX c #C6B974",
"dX c #C3AA65",
"fX c #DDC342",
"gX c #DBCB44",
"hX c #DBC649",
"jX c #D6C457",
"kX c #D6CB50",
"lX c #E4C543",
"zX c #EBCB42",
"xX c #E5C948",
"cX c #EAD346",
"vX c #F3D343",
"bX c #F7DA45",
"nX c #E5C954",
"mX c #E6D357",
"MX c #F4D859",
"NX c #F4CE49",
"BX c #FCE445",
"VX c #FDEB43",
"CX c #F9E547",
"ZX c #FFF847",
"AX c #FBE85A",
"SX c #FAF04E",
"DX c #D8C769",
"FX c #D2CC71",
"GX c #E6CE66",
"HX c #E8D769",
"JX c #F6E866",
"KX c #EDE17A",
"LX c #CABD81",
"PX c #D9C986",
"IX c #FFE78A",
"UX c None",
/* pixels */
"UXUXUXUXUXUXUXUXUXUXUXUXUXUXUXUXUXUXUXUXUXUXUXUXUXUXUXUXUXUXUXUXUXUXUXUXUXUXUXUXUXUXUXUXUXUXUXUXUXUXUXUXUXUXUXUXUXUXUXUXUXUXUXUX",
"UXUXUXUXUXUXUXUXUXUXUXUXUXUXUXUXUXUXUXUXUXUXUXUXUXUXUXUXUXUXUXUXUXUXUXUXUXUXUXUXUXUXUXUXUXUXUXUXUXUXUXUXUXUXUXUXUXUXUXUXUXUXUXUX",
"UXUXUXUXUXUXUXUXUXUXUXUXUXUXUXUXUXUXUXUXUXUXUXUXUXUXUXUXUXUXUXUXUXUXUXUXUXUXUXUXUXUXUXUXUXUXUXUXUXUXUXUXUXUXUXUXUXUXUXUXUXUXUXUX",
"UXUXUXUXUXUXUXUXUXUXUXUXUXUXUXUXUXUXUXUXUXUXUXUXUXUXUXUXUXUXUXUXUXUXUXUXUXUXUXUXUXUXUXUXUXUXUXUXUXUXUXUXUXUXUXUXUXUXUXUXUXUXUXUX",
"UXUXUXUXUXUXUXUXUXUXUXUXUXUXUXUXUXUXUXUXUXUXUXUXUXUXUXUXUX%X#X+X#X%XUXUXUXUXUXUXUXUXUXUXUXUXUXUXUXUXUXUXUXUXUXUXUXUXUXUXUXUXUXUX",
"UXUXUXUXUXUXUXUXUXUXUXUXUXUXUXUXUXUXUXUXUXUXUXUXUX=X#X+X@X+X#X/.%X%XL.@X+X+XoXUXUXUXUXUXUXUXUXUXUXUXUXUXUXUXUXUXUXUXUXUXUXUXUXUX",
"UXUXUXUXUXUXUXUXUXUXUXUXUXUXUXUXUXUXUXUXUXUX=X+X+X#X X>X3Xf.x.b.c.l.l.gX1X|.P.L.L.%XUXUXUXUXUXUXUXUXUXUXUXUXUXUXUXUXUXUXUXUXUXUX",
"UXUXUXUXUXUXUXUXUXUXUXUXUXUXUXUXUXUXUXUX%X@X+XqX3Xv.V.N.9.xXCXN.7.gXZXh.B.B.VXgX,.P.K.%XUXUXUXUXUXUXUXUXUXUXUXUXUXUXUXUXUXUXUXUX",
"UXUXUXUXUXUXUXUXUXUXUXUXUXUXUXUXUXUX%X@X&XhXN.q.8.w.qXMX4.,.JXhX` MXkXa.kX,.a.AXZ.l.xXQ.K.P.UXUXUXUXUXUXUXUXUXUXUXUXUXUXUXUXUXUX",
"UXUXUXUXUXUXUXUXUXUXUXUXUXUXUXUX%X@X=X5Xs.BXs.*.MXh.W GX8.{.:Xa.M.1X2Xa.kXa.;.AXa.{ l.bXgXF.K.|.UXUXUXUXUXUXUXUXUXUXUXUXUXUXUXUX",
"UXUXUXUXUXUXUXUXUXUXUXUXUXUXUXP.K.OXx.q.8.hXNX%.5Xr.&.iXq.y.v.7.V.k.z.a.z.<.k.cX{ ,XU P 6XbX:.K./.UXUXUXUXUXUXUXUXUXUXUXUXUXUXUX",
"UXUXUXUXUXUXUXUXUXUXUXUXUXUX+X+Xv.q.*.cXg.} DXxXG u.b.g.lXM.u.vXp.fXl.l.a.a.B.z._ `.'.g.a.CXD.p.F.F.UXUXUXUXUXUXUXUXUXUXUXUXUXUX",
"UXUXUXUXUXUXUXUXUXUXUXUXUXL.#Xn.N.b.<.y.d.r.3XcXB.k.xXCXhXZ.fXBXs.CXM.g.B.1XM.z.a.;. .5XZXc.M.A.z.U x UXUXUXUXUXUXUXUXUXUXUXUXUX",
"UXUXUXUXUXUXUXUXUXUXUXUXL./.N.m.v.bXvX_ d.vXbXg.nXVXcXCXcXMXp.].MX6XxXSXCXZ.B.,.cXz.;.z.BXM.M.b.V.m.F.* UXUXUXUXUXUXUXUXUXUXUXUX",
"UXUXUXUXUXUXUXUXUXUXUXC P.N.m.fXb.lXv.v.M.3XkXZXB.gXmX].L .X#.U .X*.Y aX1.jXAXS.A.1.cXM.M.B.M.b.x.m.c.U U UXUXUXUXUXUXUXUXUXUXUX",
"UXUXUXUXUXUXUXUXUXUXL.L.zXN.lXM.zXv.b.p.5XCXVXgXwX .[.].*.! *.<._ ,.].,.]./.pXwXAXS.M.:.l.m.B.n.x.l.c.g.* F.UXUXUXUXUXUXUXUXUXUX",
"UXUXUXUXUXUXUXUXUX%XC 4XN.n.b.zXn.k.6XlXzXVX<. XqXu._ $.#.#.#.Q.`.|.,.|.1.1Xa.Q.=XHXD.VXk.$.n.B.n.x.s.h.t.* %XUXUXUXUXUXUXUXUXUX",
"UXUXUXUXUXUXUXUXUXC 0XN.v.zXlXv.zXlX;XBXM.eX7X<.$.*.:.*.#.:.L L.LX<X1.OXOXOXOX1X1.Q.sXZXc.fXu.s.B.v.s.f.h.X.- UXUXUXUXUXUXUXUXUX",
"UXUXUXUXUXUXUXUXL.P.M.n.zXzXlXvXp.2XVXx.U.uX,.:.'.:.:.#.#.#.Q.|.uXyXOX1X1X1XwXrXrX1X/.sXZ.D.;Xu.x.n.v.9.q.r.p F.UXUXUXUXUXUXUXUX",
"UXUXUXUXUXUXUXUXC ;X0.MXn.b.b.lX6XzXk.oX<X>.'.].].:.:.#.<. .oXgXs.}.OX1XwXwXwXwXrXtXjX#.sXbXN.r.=.c.j.` gXMXW - UXUXUXUXUXUXUXUX",
"UXUXUXUXUXUXUXF.(.3.].jX1XmXc.:.xXm.Q.DX].'.;X].'.`.'.'.*.#.X.E.Q.`.<XwXwXwXwXwXwXtXtX1X/.PXN.w.t.0.>XwX,.jX3XO J.UXUXUXUXUXUXUX",
"UXUXUXUXUXUXUXC >.0.0X`.uXMXp.fXb.;X.X>.'.OX;X}.].;X'.#.@.@.@.E.!.}.<XqXyXwXwXrXwXwXtXtX:X(.nXC.i.%.;.yX[.wXMXj # UXUXUXUXUXUXUX",
"UXUXUXUXUXUXL.W.;.$.MX<XmXv.=.xXr.sXtX!.}.:XOX>X;X`.`.`.X.Y -.'.].;X}.XXrXwXtXtXwXtXtXrXtX*.*XMX' 4XH #.HX<X<.4.- P.UXUXUXUXUXUX",
"UXUXUXUXUXUXC ].m.{ ;.xXmXu.fXx.*.oX[.{.}.}.:X<X[.OX!.!.3Xf.v.v.lXM.zXhXrXrXtXtXwXrXtXwX8X>X/.eXh.r.=.^ gXr.G 2.v = UXUXUXUXUXUX",
"UXUXUXUXUXUX1 u.0.NXy.fXl.,.6X7..X{. X{.XX7X<X}.:X{.:XzXvXv.f.f.j.zXbXVXbXwXeXtXtXrXtXtX0X8X~.~.d.w.lX8.g ;.AX6XN # UXUXUXUXUXUX",
"UXUXUXUXUX= X.;.! r.GXmX8.3Xs.{.LX[. X.XXX7X7X7X XqXbXvXf.d.u.d.iXlXcXbXVXVXrXpXtXtXpXrXeX X .&XaX3.3X6.` hX^ mX-.X #XUXUXUXUXUX",
"UXUXUXUXUX& U 5.E.E.qXnX;.t.0.!.oXQ. X X7X0X8X[.8XbXvXzXf.f.d.d.f.lXvXbXCXZXVXrXpXtXrXpXoX8Xh.=.dX9.f.e.$.HX5 2X3X6 L.UXUXUXUXUX",
"UXUXUXUXUX% j R qX$.:X4Xe.y.{ ~.~.(. X.X7X7X/.sXBXV.vXx.lXj.i.d.i.v.zXbXSXSXZXgXpXuXpXeXeX8X,XW W.j.y.4XD 1XgXhX5.W C UXUXUXUXUX",
"UXUXUXUXUX% ..F T ( ,X8.$.&.^ sX(.W.(. XXXXX$XDXiXd.hXnXi.3X4XfXnXf.cXCXz.6XJXZXyXtXtXeX8X:X=.7 $XnX5.lX' g a.) 2.-., UXUXUXUXUX",
"UXUXUXUXUX& ] 7.T ( y.;.w.5.| /.Q.W.W.(..XoXeX4XX.).'.*XlX%.FXp.&XGXV.`.wXz.!.FXkXpXrXeX7X;X-.R Y.9Xf.lX..E { / e.] x UXUXUXUXUX",
"UXUXUXUXUX= W 9 w.6.w.!.^.-.W.O.Y.Y.W.(.7X>XE.zX%.dXd./.xX[ sX6.U KXl./.JXZXz.L.GXeXyXpXuXw.B R O.&XuXaXE.w a.SXfXQ x UXUXUXUXUX",
"UXUXUXUXUX= [ w v >X5.#.)..XoX*XZ Y.W.(. X&.@.v.%.Y.-.8Xi.%.rXgXwXv.0.sXJXS.gXY.DXtXtXoX`.] uX%.m aX7XPX0X8 ;.k.2.4.C UXUXUXUXUX",
"UXUXUXUX+ - ~ 9.8 O.3X_ &XsXoX/.J._._./.(.( G.iXQ W.5./.uX] .X'.DXNX5.%XAXZXz.L.DXyXqXeX=.P IXoXy pXaXDX XD JXN 2.w.Z UXUXUXUXUX",
"UXUXUXUXUX# ..G j 6.' #.^.~ U.U Y.Y.W.W.).~.o.4XB &Xj.G.9X( FX6.U FXzXJ.GXZX$.(.mXXX:X8X>XL P ~ m -Xj.n.&.9 1.mX4.' Z #XUXUXUXUX",
"UXUXUXUXUX& B X g ..'.F N V d =XG.H._.W.(.).(.>Xj U.( =.) T 7X>XH Y 5Xn.*.<.a.VX2X}.:X)..X%.f 8 _.nXe.NX/ ^ 0.cX5XR x UXUXUXUXUX",
"UXUXUXUXUX# k R / ) { F v B 7 %XH.H.H._.~./.H.dXi.2.4.5.[ ) V ) e.5.q.V.M.z.S.B.~.>X{.!.E.U.g 8 I.3Xe.xXT ! a.e J ..C UXUXUXUXUX",
"UXUXUXUXUX+ z 8.G / ,XT 7 k 8 z H.H.H._.(.~.Y.Z 9X9.e.5.+.) ) [ 5.9.j.b.A.Z.Z.a.!.;X=.E.E.m B B n [ t.,Xr 2XgXmX4.g A UXUXUXUXUX",
"UXUXUXUXUX+ = G u f ^.:.O U 5 Y.*Xx H._.W.W.W.W._.e.5.[ ) ) Q ) [ e.j.v.M.Z.M.#.:.t.P T.W.M c S ).' 6.4.] <X! kX3Xu L.UXUXUXUXUX",
"UXUXUXUXUX; = 7 S i.7 -X8 u d y #Xc H.H.T.T.T.T.R._.6.[ ) Q B ) [ 6.q.m.Z.M.$.$.<.&.c O.b v i M ^.V ,Xr @.yX1.6X[ = +XUXUXUXUXUX",
"UXUXUXUXUXUX# a c '.N qX8 p g O x Y.Z Y.T.T.R.R.R.I.R.+.) ) V ) [ 9.b.m.a.! _ &.-.$.| j b M l c q V 6.a K cXmXy.8 = UXUXUXUXUXUX",
"UXUXUXUXUXUX; x r O ] e.T . s q i *XG.H.U.U.R.R.U.X.S n b B B ) [ 6.[ B K _ <.{ ! ~ ..P h y S T.8 o.) f | 8 4.V $ , UXUXUXUXUXUX",
"UXUXUXUXUXUX# @ 4./ w f -XX i f 4 L._.M Y.I.U.U.U.O.b b z s i i a p t j ! ] ] ! _ ..K h b $ M B q ( a g NX-X3 9 % l UXUXUXUXUXUX",
"UXUXUXUXUXUXUX; d ..m i W.o.o s V 4 _.W.n U.S O.o.S b M h i y y y u f B ^ ! ! ~ ! ! j j y S u 8 b B q X.F nX^.. : UXUXUXUXUXUXUX",
"UXUXUXUXUXUXUX+ = 9 n H.v ~.X t d q z *Xb Z I.m m b b c h i y y u s d k K ! ~ ! | j j a c ^.a a f 3 v ^...<.d # : UXUXUXUXUXUXUX",
"UXUXUXUXUXUXUXUX@ h f R.c | Q o c B e i ).o.c G.M b M h u p p t t y u g L L ! ! K j d c h q 3 l B f j O >X6.o , UXUXUXUXUXUXUXUX",
"UXUXUXUXUXUXUXUX+ = f 7 -.R ' 7 X B ( r z dXo.l b M c i t p t t y u d k L L ! K ^ g M ^.R a i 2 V B f 3 Q 8 = , UXUXUXUXUXUXUXUX",
"UXUXUXUXUXUXUXUXUX@ c R R V R [ 6 X O.) r p I ^.b M l a t t t 3 t y a k K L K ^  .O.j E N a t N / g 9 a 5 # < UXUXUXUXUXUXUXUXUX",
"UXUXUXUXUXUXUXUXUX- @ Q R R B ) ) O 2 B -.H 7 I.I.B h t t $ t t t t a u K ! _ k O.t.' N l X V 4.T f f w 6 , > UXUXUXUXUXUXUXUXUX",
"UXUXUXUXUXUXUXUXUXUX# % Q H V V Q ) 6 3 N O.[ 0 u h o.p a a t t t d f ..j h *.-.7.5...h X ^ 5.E g f w 8 , C UXUXUXUXUXUXUXUXUXUX",
"UXUXUXUXUXUXUXUXUXUXUX@ > ) G B N V R q O a B | ) 8 y t t o.$ t +.s y ^._ ( s.x.=.Q 6 f 8.7./ B N w 0 > A UXUXUXUXUXUXUXUXUXUXUX",
"UXUXUXUXUXUXUXUXUXUXUXUX@ l ) V V f N q g d . a f B N a 6 3 a 6 f B Q ' f.n.<.&.N R } q.9.[ } T r w = < UXUXUXUXUXUXUXUXUXUXUXUX",
"UXUXUXUXUXUXUXUXUXUXUXUXUX@ = B V f f 6 ..| ..7 6 u 6 t a 6 h 9 | V +.e.Q 4./ [ ` 8.f.r.' } / J w > A UXUXUXUXUXUXUXUXUXUXUXUXUX",
"UXUXUXUXUXUXUXUXUXUXUXUXUXUX% % M r 0 y c f S S 2 a d 2 2 3 6 3 a q E 5.3.8.0.0.7.E u.7.} ' H d , A UXUXUXUXUXUXUXUXUXUXUXUXUXUX",
"UXUXUXUXUXUXUXUXUXUXUXUXUXUXUX& : n u a | b m p 2 q b o.0 B V V 4.5.7.0.x.x.3X` g.E =.] 5.H z 1 K.UXUXUXUXUXUXUXUXUXUXUXUXUXUXUX",
"UXUXUXUXUXUXUXUXUXUXUXUXUXUXUXUX= % = $ d 8 +.3 b M o S B 3 -X5.r >Xt.r.0.;.mX^ &.` e %.$.1 < A UXUXUXUXUXUXUXUXUXUXUXUXUXUXUXUX",
"UXUXUXUXUXUXUXUXUXUXUXUXUXUXUXUXUXUX% : % $ 0 . i +.. l o.. Y.^.5 5X<.!.t.J hXs.D '  .Z A L.UXUXUXUXUXUXUXUXUXUXUXUXUXUXUXUXUXUX",
"UXUXUXUXUXUXUXUXUXUXUXUXUXUXUXUXUXUXUXUX& > > l o X 9 f e c M 7 ) '.d.J x.3.0.y.U C K.K.UXUXUXUXUXUXUXUXUXUXUXUXUXUXUXUXUXUXUXUX",
"UXUXUXUXUXUXUXUXUXUXUXUXUXUXUXUXUXUXUXUXUXUX: > , : = l h i B q 5.W 6.]  .H.F.A @XL.UXUXUXUXUXUXUXUXUXUXUXUXUXUXUXUXUXUXUXUXUXUX",
"UXUXUXUXUXUXUXUXUXUXUXUXUXUXUXUXUXUXUXUXUXUXUXUXUX> : : > , , C C C , A A A L.UXUXUXUXUXUXUXUXUXUXUXUXUXUXUXUXUXUXUXUXUXUXUXUXUX",
"UXUXUXUXUXUXUXUXUXUXUXUXUXUXUXUXUXUXUXUXUXUXUXUXUXUXUXUXUX> , : , < C UXUXUXUXUXUXUXUXUXUXUXUXUXUXUXUXUXUXUXUXUXUXUXUXUXUXUXUXUX",
"UXUXUXUXUXUXUXUXUXUXUXUXUXUXUXUXUXUXUXUXUXUXUXUXUXUXUXUXUXUXUXUXUXUXUXUXUXUXUXUXUXUXUXUXUXUXUXUXUXUXUXUXUXUXUXUXUXUXUXUXUXUXUXUX",
"UXUXUXUXUXUXUXUXUXUXUXUXUXUXUXUXUXUXUXUXUXUXUXUXUXUXUXUXUXUXUXUXUXUXUXUXUXUXUXUXUXUXUXUXUXUXUXUXUXUXUXUXUXUXUXUXUXUXUXUXUXUXUXUX",
"UXUXUXUXUXUXUXUXUXUXUXUXUXUXUXUXUXUXUXUXUXUXUXUXUXUXUXUXUXUXUXUXUXUXUXUXUXUXUXUXUXUXUXUXUXUXUXUXUXUXUXUXUXUXUXUXUXUXUXUXUXUXUXUX",
"UXUXUXUXUXUXUXUXUXUXUXUXUXUXUXUXUXUXUXUXUXUXUXUXUXUXUXUXUXUXUXUXUXUXUXUXUXUXUXUXUXUXUXUXUXUXUXUXUXUXUXUXUXUXUXUXUXUXUXUXUXUXUXUX"
};
