/* XPM */
static char *ff0f8424fdd14c279ad2e20723a6c2bf[] = {
/* columns rows colors chars-per-pixel */
"16 16 149 2 ",
"   c #7C5B1D",
".  c #775921",
"X  c #795E20",
"o  c #705B28",
"O  c #755E35",
"+  c #7B6531",
"@  c #7C6534",
"#  c #7C6536",
"$  c #8E671B",
"%  c #99731C",
"&  c #A97F19",
"*  c #B27B1D",
"=  c #866B26",
"-  c #876B27",
";  c #89662B",
":  c #8E6C28",
">  c #946F22",
",  c #926F24",
"<  c #906F29",
"1  c #8F7122",
"2  c #927124",
"3  c #997826",
"4  c #9D7927",
"5  c #90722B",
"6  c #9A7829",
"7  c #9A7D2A",
"8  c #9E7E2E",
"9  c #8C6F38",
"0  c #8C7530",
"q  c #907037",
"w  c #927735",
"e  c #957634",
"r  c #997D3D",
"t  c #A07521",
"y  c #A07B21",
"u  c #AD801B",
"i  c #9E862C",
"p  c #97873E",
"a  c #AE8523",
"s  c #A8812A",
"d  c #A68B29",
"f  c #A9882A",
"g  c #B18929",
"h  c #B79025",
"j  c #B29826",
"k  c #BA9B29",
"l  c #A18234",
"z  c #A28A35",
"x  c #AB8E32",
"c  c #A3863B",
"v  c #A38C3F",
"b  c #A8883A",
"n  c #A88D39",
"m  c #A69437",
"M  c #BD9734",
"N  c #B4953B",
"B  c #B0953C",
"V  c #BB9639",
"C  c #B1A13A",
"Z  c #BBA13B",
"A  c #C39717",
"S  c #C09D18",
"D  c #C09828",
"F  c #C49F29",
"G  c #C5A725",
"H  c #C6AC2F",
"J  c #D4AD2A",
"K  c #DDBF2C",
"L  c #C6A433",
"P  c #C5A434",
"I  c #CAA433",
"U  c #C6AB3A",
"Y  c #C5AC3E",
"T  c #CBB03C",
"R  c #D0B235",
"E  c #D3B634",
"W  c #D5B537",
"Q  c #D2B53A",
"!  c #D0B73A",
"~  c #D4B83D",
"^  c #DBBC39",
"/  c #E3B72E",
"(  c #E0BC32",
")  c #E9BE36",
"_  c #E9C01D",
"`  c #DCC737",
"'  c #DFCA30",
"]  c #F2CB28",
"[  c #FCD62B",
"{  c #E8CC3E",
"}  c #E8CD3E",
"|  c #E3D236",
" . c #EED738",
".. c #F3D23A",
"X. c #F6D43A",
"o. c #FFE32D",
"O. c #9C8751",
"+. c #A18B43",
"@. c #A58D48",
"#. c #A69444",
"$. c #B59A41",
"%. c #B59842",
"&. c #B29C42",
"*. c #B29F42",
"=. c #B29F45",
"-. c #B89F4B",
";. c #A78E50",
":. c #A18E57",
">. c #A49256",
",. c #A99351",
"<. c #A99456",
"1. c #AF9856",
"2. c #B09E55",
"3. c #B3A14A",
"4. c #B3A24E",
"5. c #BEA150",
"6. c #BBA655",
"7. c #BAA456",
"8. c #BBAC5E",
"9. c #BFB353",
"0. c #C1A248",
"q. c #C2A848",
"w. c #C4AE48",
"e. c #C3AC4E",
"r. c #CBB342",
"t. c #CFB745",
"y. c #C4B34E",
"u. c #CFB849",
"i. c #CEBB49",
"p. c #D2B448",
"a. c #C7B350",
"s. c #C6B253",
"d. c #C0B452",
"f. c #CBB151",
"g. c #C9BE5C",
"h. c #C1B361",
"j. c #C7BA65",
"k. c #CDBE64",
"l. c #D8C946",
"z. c #DBC947",
"x. c #DBC750",
"c. c #D2CA59",
"v. c #DFD550",
"b. c #EACE45",
"n. c #E6CC4D",
"m. c #E8CF49",
"M. c #E3D849",
"N. c #E8E050",
"B. c None",
/* pixels */
"B.B.B.B.B.B.B.B.B.B.B.B.B.B.B.B.",
"B.B.B.B.B.B.6.e.y.d.B.B.B.B.B.B.",
"B.B.B.B.=.W ( .. .' U C B.B.B.B.",
"B.B.B.~ ] } z.Y r.z.` o.H B.B.B.",
"B.B.&.[ b.i.m p 4.d.c.} _ z B.B.",
"B.B.! m.w.3.&.Z p.g.h.f.! j B.B.",
"B.0 ^ T 2.8.n.) X.N.j.7.L S ,.B.",
"B.= I -.>.q.p.a.x.v.k.$.5.R x B.",
"B.= D @.:.%.M N t.M.s.c 0.E B B.",
"B.o h 1 O.<.V * / | b q g G 1.B.",
"B.B.l 2 e ;.r : 3 d 7 ; s f B.B.",
"B.B.@ a % b e . X i i , & # B.B.",
"B.B.B.6 & y >   4 P F A 5 B.B.B.",
"B.B.B.B.@ 5 $ t J K k +.B.B.B.B.",
"B.B.B.B.B.B.O 9 +.#.B.B.B.B.B.B.",
"B.B.B.B.B.B.B.B.B.B.B.B.B.B.B.B."
};
