/* XPM */
static char *_bce8432ebe14c2ef8b633beba292992[] = {
/* columns rows colors chars-per-pixel */
"32 32 256 2 ",
"   c #7C5B10",
".  c #5E4F2C",
"X  c #62522B",
"o  c #695A2E",
"O  c #7D5F21",
"+  c #735E29",
"@  c #6C5A34",
"#  c #675A38",
"$  c #68583C",
"%  c #655633",
"&  c #735C33",
"*  c #715F39",
"=  c #6A5C44",
"-  c #786645",
";  c #7B6E50",
":  c #976C0E",
">  c #99770F",
",  c #83621D",
"<  c #8B6A1C",
"1  c #876518",
"2  c #926D1C",
"3  c #97711F",
"4  c #9C751F",
"5  c #937016",
"6  c #A27914",
"7  c #846323",
"8  c #886724",
"9  c #876826",
"0  c #8E6C25",
"q  c #83662B",
"w  c #876A2C",
"e  c #8C6E2C",
"r  c #936E23",
"t  c #926E29",
"y  c #8E7125",
"u  c #86702F",
"i  c #937223",
"p  c #9A7424",
"a  c #967826",
"s  c #9A7B25",
"d  c #94732C",
"f  c #967B29",
"g  c #9C7B2C",
"h  c #9A7528",
"j  c #886D33",
"k  c #8B7433",
"l  c #947533",
"z  c #977833",
"x  c #9A7C33",
"c  c #907239",
"v  c #9A7D3B",
"b  c #A37C23",
"n  c #A17D2D",
"m  c #816F48",
"M  c #8D7C47",
"N  c #83734A",
"B  c #897C57",
"V  c #A9871E",
"C  c #B5881A",
"Z  c #B89919",
"A  c #BB941C",
"S  c #9D842C",
"D  c #9D8030",
"F  c #9D823D",
"G  c #9F8D3D",
"H  c #A48324",
"J  c #AB8324",
"K  c #AD8926",
"L  c #A4842B",
"P  c #AA842A",
"I  c #A48A2A",
"U  c #AD8C2B",
"Y  c #B28627",
"T  c #BE8E20",
"R  c #B28D2C",
"E  c #B38827",
"W  c #AD932A",
"Q  c #B59224",
"!  c #BC9622",
"~  c #B4922B",
"^  c #BA942B",
"/  c #BB9C2A",
"(  c #A48433",
")  c #A2833A",
"_  c #A38B33",
"`  c #B78E32",
"'  c #AD9531",
"]  c #AC953C",
"[  c #AF9B3B",
"{  c #A6923A",
"}  c #B29233",
"|  c #B59A36",
" . c #B5923A",
".. c #B49C3F",
"X. c #BC9C3A",
"o. c #BD9932",
"O. c #BFA92E",
"+. c #BDA12B",
"@. c #B6A13C",
"#. c #BCA23A",
"$. c #BDAE3C",
"%. c #C0901D",
"&. c #C39C2C",
"*. c #CA972B",
"=. c #D39F22",
"-. c #C39C32",
";. c #C7A32D",
":. c #CAA429",
">. c #CBAB2D",
",. c #C5AC2A",
"<. c #D2AE2B",
"1. c #CCB229",
"2. c #D5B42C",
"3. c #C1A234",
"4. c #C5AA34",
"5. c #C1A43D",
"6. c #C3AC3A",
"7. c #CBAC39",
"8. c #CBA838",
"9. c #D2A030",
"0. c #D4AF38",
"q. c #D0AA32",
"w. c #CBB436",
"e. c #CCB33B",
"r. c #CEBA31",
"t. c #D5B532",
"y. c #DDB737",
"u. c #D6BA36",
"i. c #D8B836",
"p. c #D5B539",
"a. c #DAB739",
"s. c #D3BA3E",
"d. c #DCBB3B",
"f. c #E3BC39",
"g. c #D9C02B",
"h. c #D6C237",
"j. c #DDC135",
"k. c #D4C038",
"l. c #DEC23C",
"z. c #DBCC3B",
"x. c #E1C034",
"c. c #E1C53E",
"v. c #EBCB3C",
"b. c #E8C93A",
"n. c #F4CA34",
"m. c #EDDB3B",
"M. c #E6D237",
"N. c #FEDA35",
"B. c #F1D43D",
"V. c #FFDB3A",
"C. c #FFE433",
"Z. c #FFFF3C",
"A. c #8F804D",
"S. c #9D8444",
"D. c #978448",
"F. c #9C864B",
"G. c #998A47",
"H. c #9B914C",
"J. c #8D8354",
"K. c #998A59",
"L. c #9E935F",
"P. c #A48945",
"I. c #A38B4A",
"U. c #AA8F49",
"Y. c #A98C45",
"T. c #A59245",
"R. c #AD9343",
"E. c #AB914A",
"W. c #A99A4A",
"Q. c #B39644",
"!. c #B59C42",
"~. c #B0964E",
"^. c #B49B4B",
"/. c #B99C4A",
"(. c #A28E55",
"). c #AE9955",
"_. c #A99C5F",
"`. c #AC9653",
"'. c #B29C52",
"]. c #BAA544",
"[. c #BEAB44",
"{. c #B4A14E",
"}. c #BAA64B",
"|. c #BDAA4D",
" X c #B5A648",
".X c #A7A15A",
"XX c #B5A355",
"oX c #BBA252",
"OX c #BDAA52",
"+X c #B1A25D",
"@X c #B5A856",
"#X c #9F976B",
"$X c #999170",
"%X c #A89A66",
"&X c #AFA662",
"*X c #B9AC62",
"=X c #ABA272",
"-X c #C8A948",
";X c #C3A846",
":X c #C7B344",
">X c #CDBB44",
",X c #C4B34C",
"<X c #CCB749",
"1X c #CDBB4C",
"2X c #CDB241",
"3X c #D4B542",
"4X c #D3BA41",
"5X c #DAB748",
"6X c #D2BA4A",
"7X c #D7B746",
"8X c #C1AD55",
"9X c #C9AF54",
"0X c #C4B154",
"qX c #CCB354",
"wX c #CBBD54",
"eX c #C2B45D",
"rX c #C9B55A",
"tX c #C4B95B",
"yX c #CBBA5B",
"uX c #D8BE50",
"iX c #D1BF5A",
"pX c #D4B852",
"aX c #E1BD40",
"sX c #C7B662",
"dX c #C8B960",
"fX c #C6B268",
"gX c #D3C345",
"hX c #DDC343",
"jX c #DCCB45",
"kX c #D7C048",
"lX c #D9C24B",
"zX c #D9CB4D",
"xX c #CBC057",
"cX c #DCCC55",
"vX c #D2C35D",
"bX c #DFD850",
"nX c #E2C642",
"mX c #EBCC43",
"MX c #EACF48",
"NX c #E2C74D",
"BX c #E7D248",
"VX c #EAD349",
"CX c #EBDF49",
"ZX c #EBD441",
"AX c #F2DE45",
"SX c #F5D849",
"DX c #E1D750",
"FX c #ECE34E",
"GX c #FFEA40",
"HX c #F7E647",
"JX c #FFFC43",
"KX c #F3F056",
"LX c #DFD562",
"PX c #DBC67F",
"IX c #E8CC60",
"UX c None",
/* pixels */
"UXUXUXUXUXUXUXUXUXUXUXUXUXUXUXUXUXUXUXUXUXUXUXUXUXUXUXUXUXUXUXUX",
"UXUXUXUXUXUXUXUXUXUXUXUXUXUXUXUXUXUXUXUXUXUXUXUXUXUXUXUXUXUXUXUX",
"UXUXUXUXUXUXUXUXUXUXUXUXUXUX%X_._._.&XUXUXUXUXUXUXUXUXUXUXUXUXUX",
"UXUXUXUXUXUXUXUXUXUX=X+XOX3Xs.v.c.jX>X,X@X.XUXUXUXUXUXUXUXUXUXUX",
"UXUXUXUXUXUXUXUXUX+XlXx.<.y.s.gXz.jXr.ZXz.[.`.UXUXUXUXUXUXUXUXUX",
"UXUXUXUXUXUXUX#X!.2.x.7X3.p.d.l.b.k.w.h.} #.M.$.H.UXUXUXUXUXUXUX",
"UXUXUXUXUXUXL.u.N.w.7.nXAXAXVXhXhXVXHXm.O.e.C.C.,.A.UXUXUXUXUXUX",
"UXUXUXUXUX$X1.N.MXd.ZXHXzX;X[ [ ] [.wXcXHXM.z.ZXN.Z K.UXUXUXUXUX",
"UXUXUXUXUX+.N.mXl.nXVX,X[ { ' T.8X$.[.{.tXFXj.p.m.n.> UXUXUXUXUX",
"UXUXUXUXF b.SXc.l.hX}.@.@.@.{  XwX,XwXwX8X*XSX0.i.j.2.u UXUXUXUX",
"UXUXUXUXW 1XcXc.aX8X].;X;X!.T.{ !.8XxXxXvX0XeXmX&.].LXH UXUXUXUX",
"UXUXUXU.2.>XuXi.,X@X].,X].W.#.7.4XgXeXtXxXxXXX9X2.| >X! j UXUXUX",
"UXUXUX_ i.NXu.e.XX'.8XOXoXMXv.a.mXGXCXeXyXyXOXXX7X&./ d.y UXUXUX",
"UXUXUXS !.6X:.;X+X{.OX*XSXV.i.0.y.SXJXFXeXsX9X!.-X<.@.3XH UXUXUX",
"UXUXX U o.4.! R.`.'.@XrX7XpX7X,XuXVXgXDXvXsXqXs /.d.W >.Q K.UXUX",
"UXUX@ K ~ 5.oX).F.)./.>.Q.oX;X|.uXqXKX,XfXyX;X} ~.PX] 1.&.M UXUX",
"UXUXo H P #.XX).F.`.R.o. ./.}.;X>X8XbX:XrX0X!.R.^.IX| 4.&.D.UXUX",
"UXUX. p ^ ~ 5 F (.(.'.'.-.-.` ` o.d.u.m.1XoX] 1  .f.Q w.R K.UXUX",
"UXUXUXf ^ } < x (.S.~.(.8.=.Y n *.n.Z.z. .R.) l  .-.@.gXJ UXUXUX",
"UXUXUX+ ( | 2 w F.F.U.U.I. .Y Y 9.n.k.' } v l c ` J [ nXt UXUXUX",
"UXUXUXX H ^ f   v (.S.Y.P.v d h L L I W W L j d b b 3.b & UXUXUX",
"UXUXUXUXw ) S., 2 P.I.) ) z e 7 O y I I I y l r r x s.q UXUXUXUX",
"UXUXUXUXX g } r , J P.S.z d 9 7 7 i S S f x n 7 h h b * UXUXUXUX",
"UXUXUXUXUXq T E < p Y ) v e O O 7 y S S } U 7 b K : q UXUXUXUXUX",
"UXUXUXUXUX% h T b r 4 b n 0 8 8 0 g | 7.^ p K / 6 t = UXUXUXUXUX",
"UXUXUXUXUXUX@ d C 4 t p p 1 , 7 p ` >.:.R >.2.C y ; UXUXUXUXUXUX",
"UXUXUXUXUXUXUX$ j r ( x , r r 4 K :.t.4./ :.A k B UXUXUXUXUXUXUX",
"UXUXUXUXUXUXUXUXUX* w r < p x P &.s.g.u.V D A.UXUXUXUXUXUXUXUXUX",
"UXUXUXUXUXUXUXUXUXUX$ @ & q t f ` 3.' R.H.J.UXUXUXUXUXUXUXUXUXUX",
"UXUXUXUXUXUXUXUXUXUXUXUXUX= - - m N UXUXUXUXUXUXUXUXUXUXUXUXUXUX",
"UXUXUXUXUXUXUXUXUXUXUXUXUXUXUXUXUXUXUXUXUXUXUXUXUXUXUXUXUXUXUXUX",
"UXUXUXUXUXUXUXUXUXUXUXUXUXUXUXUXUXUXUXUXUXUXUXUXUXUXUXUXUXUXUXUX"
};
